<mxfile host="app.diagrams.net" modified="2023-06-08T08:03:35.453Z" agent="Mozilla/5.0 (Windows NT 10.0; Win64; x64) AppleWebKit/537.36 (KHTML, like Gecko) Chrome/114.0.0.0 Safari/537.36" etag="VkjYcBuY3MvVO7acxQyC" version="21.3.7" type="github">
  <diagram id="C5RBs43oDa-KdzZeNtuy" name="Page-1">
    <mxGraphModel dx="3047" dy="2463" grid="1" gridSize="10" guides="1" tooltips="1" connect="1" arrows="1" fold="1" page="1" pageScale="1" pageWidth="827" pageHeight="1169" math="0" shadow="0">
      <root>
        <mxCell id="WIyWlLk6GJQsqaUBKTNV-0" />
        <mxCell id="WIyWlLk6GJQsqaUBKTNV-1" parent="WIyWlLk6GJQsqaUBKTNV-0" />
        <mxCell id="WIyWlLk6GJQsqaUBKTNV-3" value="abstract BaseActivity" style="rounded=1;whiteSpace=wrap;html=1;fontSize=12;glass=0;strokeWidth=1;shadow=0;fillColor=#dae8fc;strokeColor=#6c8ebf;fontColor=#878787;" parent="WIyWlLk6GJQsqaUBKTNV-1" vertex="1">
          <mxGeometry x="160" y="80" width="120" height="40" as="geometry" />
        </mxCell>
        <mxCell id="BQwGy1CQVx7rT-iq4Jp_-0" value="AddBoilerActivity" style="rounded=1;whiteSpace=wrap;html=1;fontSize=12;glass=0;strokeWidth=1;shadow=0;fillColor=#dae8fc;strokeColor=#6c8ebf;" parent="WIyWlLk6GJQsqaUBKTNV-1" vertex="1">
          <mxGeometry x="161" width="120" height="40" as="geometry" />
        </mxCell>
        <mxCell id="BQwGy1CQVx7rT-iq4Jp_-1" value="AuthActivity" style="rounded=1;whiteSpace=wrap;html=1;fontSize=12;glass=0;strokeWidth=1;shadow=0;fillColor=#dae8fc;strokeColor=#6c8ebf;" parent="WIyWlLk6GJQsqaUBKTNV-1" vertex="1">
          <mxGeometry x="403" y="80" width="120" height="40" as="geometry" />
        </mxCell>
        <mxCell id="BQwGy1CQVx7rT-iq4Jp_-15" style="edgeStyle=orthogonalEdgeStyle;rounded=0;orthogonalLoop=1;jettySize=auto;html=1;exitX=0;exitY=0.5;exitDx=0;exitDy=0;entryX=1;entryY=0.5;entryDx=0;entryDy=0;" parent="WIyWlLk6GJQsqaUBKTNV-1" source="BQwGy1CQVx7rT-iq4Jp_-2" target="BQwGy1CQVx7rT-iq4Jp_-12" edge="1">
          <mxGeometry relative="1" as="geometry" />
        </mxCell>
        <mxCell id="BQwGy1CQVx7rT-iq4Jp_-4" value="SettingActivity&lt;br&gt;implements&lt;br&gt;ToolbarManager" style="rounded=1;whiteSpace=wrap;html=1;fontSize=12;glass=0;strokeWidth=1;shadow=0;fillColor=#dae8fc;strokeColor=#6c8ebf;" parent="WIyWlLk6GJQsqaUBKTNV-1" vertex="1">
          <mxGeometry x="160" y="445" width="120" height="65" as="geometry" />
        </mxCell>
        <mxCell id="BQwGy1CQVx7rT-iq4Jp_-6" value="выбор котла после логина" style="rounded=0;whiteSpace=wrap;html=1;fontColor=#8c8c8c;" parent="WIyWlLk6GJQsqaUBKTNV-1" vertex="1">
          <mxGeometry x="160" y="120" width="120" height="40" as="geometry" />
        </mxCell>
        <mxCell id="BQwGy1CQVx7rT-iq4Jp_-11" value="" style="rounded=0;html=1;jettySize=auto;orthogonalLoop=1;fontSize=11;endArrow=block;endFill=0;endSize=8;strokeWidth=1;shadow=0;labelBackgroundColor=none;edgeStyle=orthogonalEdgeStyle;exitX=0;exitY=0.5;exitDx=0;exitDy=0;dashed=1;entryX=1;entryY=0.5;entryDx=0;entryDy=0;" parent="WIyWlLk6GJQsqaUBKTNV-1" edge="1" target="BQwGy1CQVx7rT-iq4Jp_-2" source="WIyWlLk6GJQsqaUBKTNV-3">
          <mxGeometry relative="1" as="geometry">
            <mxPoint x="219.8" y="160" as="sourcePoint" />
            <mxPoint x="220" y="190" as="targetPoint" />
            <Array as="points" />
          </mxGeometry>
        </mxCell>
        <mxCell id="BQwGy1CQVx7rT-iq4Jp_-24" value="" style="group" parent="WIyWlLk6GJQsqaUBKTNV-1" vertex="1" connectable="0">
          <mxGeometry x="-310" y="-20" width="120" height="140" as="geometry" />
        </mxCell>
        <mxCell id="BQwGy1CQVx7rT-iq4Jp_-12" value="BoilerListFragment" style="rounded=1;whiteSpace=wrap;html=1;fontSize=12;glass=0;strokeWidth=1;shadow=0;fillColor=#e1d5e7;strokeColor=#9673a6;" parent="BQwGy1CQVx7rT-iq4Jp_-24" vertex="1">
          <mxGeometry y="100" width="120" height="40" as="geometry" />
        </mxCell>
        <mxCell id="BQwGy1CQVx7rT-iq4Jp_-16" value="BoilerListPresenter" style="rounded=1;whiteSpace=wrap;html=1;fontSize=12;glass=0;strokeWidth=1;shadow=0;fillColor=#d5e8d4;strokeColor=#82b366;" parent="BQwGy1CQVx7rT-iq4Jp_-24" vertex="1">
          <mxGeometry width="120" height="40" as="geometry" />
        </mxCell>
        <mxCell id="BQwGy1CQVx7rT-iq4Jp_-22" value="" style="shape=flexArrow;endArrow=classic;startArrow=classic;html=1;rounded=0;exitX=0.5;exitY=0;exitDx=0;exitDy=0;entryX=0.5;entryY=1;entryDx=0;entryDy=0;" parent="BQwGy1CQVx7rT-iq4Jp_-24" source="BQwGy1CQVx7rT-iq4Jp_-12" target="BQwGy1CQVx7rT-iq4Jp_-16" edge="1">
          <mxGeometry width="100" height="100" relative="1" as="geometry">
            <mxPoint x="-30" y="140" as="sourcePoint" />
            <mxPoint x="70" y="40" as="targetPoint" />
          </mxGeometry>
        </mxCell>
        <mxCell id="BQwGy1CQVx7rT-iq4Jp_-32" style="edgeStyle=orthogonalEdgeStyle;rounded=0;orthogonalLoop=1;jettySize=auto;html=1;exitX=1;exitY=0.5;exitDx=0;exitDy=0;entryX=0;entryY=0.5;entryDx=0;entryDy=0;" parent="WIyWlLk6GJQsqaUBKTNV-1" source="BQwGy1CQVx7rT-iq4Jp_-1" target="BQwGy1CQVx7rT-iq4Jp_-29" edge="1">
          <mxGeometry relative="1" as="geometry">
            <mxPoint x="170" y="110" as="sourcePoint" />
            <mxPoint x="90" y="110" as="targetPoint" />
          </mxGeometry>
        </mxCell>
        <mxCell id="BQwGy1CQVx7rT-iq4Jp_-38" value="" style="rounded=0;html=1;jettySize=auto;orthogonalLoop=1;fontSize=11;endArrow=block;endFill=0;endSize=8;strokeWidth=1;shadow=0;labelBackgroundColor=none;edgeStyle=orthogonalEdgeStyle;exitX=0.5;exitY=0;exitDx=0;exitDy=0;entryX=0.5;entryY=1;entryDx=0;entryDy=0;dashed=1;" parent="WIyWlLk6GJQsqaUBKTNV-1" source="WIyWlLk6GJQsqaUBKTNV-3" target="BQwGy1CQVx7rT-iq4Jp_-0" edge="1">
          <mxGeometry relative="1" as="geometry">
            <mxPoint x="280" y="100" as="sourcePoint" />
            <mxPoint x="430" y="100" as="targetPoint" />
            <Array as="points" />
          </mxGeometry>
        </mxCell>
        <mxCell id="BQwGy1CQVx7rT-iq4Jp_-39" value="" style="group" parent="WIyWlLk6GJQsqaUBKTNV-1" vertex="1" connectable="0">
          <mxGeometry x="280" y="-280" width="210" height="270" as="geometry" />
        </mxCell>
        <mxCell id="BQwGy1CQVx7rT-iq4Jp_-40" value="BoilerDataFragment" style="rounded=1;whiteSpace=wrap;html=1;fontSize=12;glass=0;strokeWidth=1;shadow=0;fillColor=#e1d5e7;strokeColor=#9673a6;" parent="BQwGy1CQVx7rT-iq4Jp_-39" vertex="1">
          <mxGeometry width="160" height="70" as="geometry" />
        </mxCell>
        <mxCell id="BQwGy1CQVx7rT-iq4Jp_-41" value="Class Introduction" style="swimlane;whiteSpace=wrap;html=1;" parent="BQwGy1CQVx7rT-iq4Jp_-39" vertex="1" collapsed="1">
          <mxGeometry y="70" width="160" height="30" as="geometry">
            <mxRectangle y="70" width="210" height="200" as="alternateBounds" />
          </mxGeometry>
        </mxCell>
        <mxCell id="BQwGy1CQVx7rT-iq4Jp_-42" value="Содержит контекст&amp;nbsp;AddBoilerActivity" style="text;html=1;align=center;verticalAlign=middle;resizable=0;points=[];autosize=1;strokeColor=none;fillColor=none;" parent="BQwGy1CQVx7rT-iq4Jp_-41" vertex="1">
          <mxGeometry x="-4" y="24" width="220" height="30" as="geometry" />
        </mxCell>
        <mxCell id="BQwGy1CQVx7rT-iq4Jp_-44" value="" style="group" parent="WIyWlLk6GJQsqaUBKTNV-1" vertex="1" connectable="0">
          <mxGeometry x="-50" y="-280" width="210" height="270" as="geometry" />
        </mxCell>
        <mxCell id="BQwGy1CQVx7rT-iq4Jp_-45" value="BoilerModelListFragment" style="rounded=1;whiteSpace=wrap;html=1;fontSize=12;glass=0;strokeWidth=1;shadow=0;fillColor=#e1d5e7;strokeColor=#9673a6;" parent="BQwGy1CQVx7rT-iq4Jp_-44" vertex="1">
          <mxGeometry width="160" height="70" as="geometry" />
        </mxCell>
        <mxCell id="BQwGy1CQVx7rT-iq4Jp_-46" value="Class Introduction" style="swimlane;whiteSpace=wrap;html=1;" parent="BQwGy1CQVx7rT-iq4Jp_-44" vertex="1" collapsed="1">
          <mxGeometry y="70" width="160" height="30" as="geometry">
            <mxRectangle y="70" width="210" height="200" as="alternateBounds" />
          </mxGeometry>
        </mxCell>
        <mxCell id="BQwGy1CQVx7rT-iq4Jp_-47" value="Содержит контекст&amp;nbsp;AddBoilerActivity" style="text;html=1;align=center;verticalAlign=middle;resizable=0;points=[];autosize=1;strokeColor=none;fillColor=none;" parent="BQwGy1CQVx7rT-iq4Jp_-46" vertex="1">
          <mxGeometry x="-10" y="24" width="220" height="30" as="geometry" />
        </mxCell>
        <mxCell id="BQwGy1CQVx7rT-iq4Jp_-59" value="Содержит recycler котлов" style="text;html=1;align=center;verticalAlign=middle;resizable=0;points=[];autosize=1;strokeColor=none;fillColor=none;" parent="BQwGy1CQVx7rT-iq4Jp_-46" vertex="1">
          <mxGeometry x="-10" y="44" width="170" height="30" as="geometry" />
        </mxCell>
        <mxCell id="BQwGy1CQVx7rT-iq4Jp_-57" style="edgeStyle=orthogonalEdgeStyle;rounded=0;orthogonalLoop=1;jettySize=auto;html=1;exitX=0.5;exitY=0;exitDx=0;exitDy=0;entryX=1;entryY=0.5;entryDx=0;entryDy=0;" parent="WIyWlLk6GJQsqaUBKTNV-1" source="BQwGy1CQVx7rT-iq4Jp_-0" target="BQwGy1CQVx7rT-iq4Jp_-45" edge="1">
          <mxGeometry relative="1" as="geometry">
            <mxPoint x="590" y="10" as="sourcePoint" />
            <mxPoint x="670" y="11" as="targetPoint" />
          </mxGeometry>
        </mxCell>
        <mxCell id="BQwGy1CQVx7rT-iq4Jp_-58" style="edgeStyle=orthogonalEdgeStyle;rounded=0;orthogonalLoop=1;jettySize=auto;html=1;exitX=0.5;exitY=0;exitDx=0;exitDy=0;entryX=0;entryY=0.5;entryDx=0;entryDy=0;" parent="WIyWlLk6GJQsqaUBKTNV-1" source="BQwGy1CQVx7rT-iq4Jp_-0" target="BQwGy1CQVx7rT-iq4Jp_-40" edge="1">
          <mxGeometry relative="1" as="geometry">
            <mxPoint x="460" y="-310" as="sourcePoint" />
            <mxPoint x="540" y="-309" as="targetPoint" />
          </mxGeometry>
        </mxCell>
        <mxCell id="BQwGy1CQVx7rT-iq4Jp_-60" value="BoilerModelRecyclerViewAdapter" style="rounded=1;whiteSpace=wrap;html=1;fillColor=#fff2cc;strokeColor=#d6b656;" parent="WIyWlLk6GJQsqaUBKTNV-1" vertex="1">
          <mxGeometry x="-350" y="-275" width="190" height="60" as="geometry" />
        </mxCell>
        <mxCell id="BQwGy1CQVx7rT-iq4Jp_-65" style="edgeStyle=orthogonalEdgeStyle;rounded=0;orthogonalLoop=1;jettySize=auto;html=1;exitX=0;exitY=0.5;exitDx=0;exitDy=0;entryX=1;entryY=0.5;entryDx=0;entryDy=0;" parent="WIyWlLk6GJQsqaUBKTNV-1" source="BQwGy1CQVx7rT-iq4Jp_-45" target="BQwGy1CQVx7rT-iq4Jp_-60" edge="1">
          <mxGeometry relative="1" as="geometry">
            <mxPoint x="210" y="90" as="sourcePoint" />
            <mxPoint x="120" y="-235" as="targetPoint" />
          </mxGeometry>
        </mxCell>
        <mxCell id="1PxclfP2Zs6_VL7mTuX3-3" value="" style="rounded=0;html=1;jettySize=auto;orthogonalLoop=1;fontSize=11;endArrow=block;endFill=0;endSize=8;strokeWidth=1;shadow=0;labelBackgroundColor=none;edgeStyle=orthogonalEdgeStyle;exitX=0.5;exitY=1;exitDx=0;exitDy=0;entryX=0.5;entryY=0;entryDx=0;entryDy=0;dashed=1;" edge="1" parent="WIyWlLk6GJQsqaUBKTNV-1" source="BQwGy1CQVx7rT-iq4Jp_-6" target="BQwGy1CQVx7rT-iq4Jp_-4">
          <mxGeometry relative="1" as="geometry">
            <mxPoint x="290" y="110" as="sourcePoint" />
            <mxPoint x="450" y="110" as="targetPoint" />
            <Array as="points" />
          </mxGeometry>
        </mxCell>
        <mxCell id="1PxclfP2Zs6_VL7mTuX3-4" value="" style="group" vertex="1" connectable="0" parent="WIyWlLk6GJQsqaUBKTNV-1">
          <mxGeometry x="-120" y="280" width="170" height="70" as="geometry" />
        </mxCell>
        <mxCell id="BQwGy1CQVx7rT-iq4Jp_-3" value="BoilerVidgetConfigActivity.kt" style="rounded=1;whiteSpace=wrap;html=1;fontSize=12;glass=0;strokeWidth=1;shadow=0;fillColor=#dae8fc;strokeColor=#6c8ebf;" parent="1PxclfP2Zs6_VL7mTuX3-4" vertex="1">
          <mxGeometry width="170" height="40" as="geometry" />
        </mxCell>
        <mxCell id="1PxclfP2Zs6_VL7mTuX3-0" value="Class Introduction" style="swimlane;whiteSpace=wrap;html=1;" vertex="1" collapsed="1" parent="1PxclfP2Zs6_VL7mTuX3-4">
          <mxGeometry y="40" width="170" height="30" as="geometry">
            <mxRectangle x="430" y="330" width="200" height="200" as="alternateBounds" />
          </mxGeometry>
        </mxCell>
        <mxCell id="1PxclfP2Zs6_VL7mTuX3-1" value="Kotlin" style="text;html=1;align=left;verticalAlign=middle;resizable=0;points=[];autosize=1;strokeColor=none;fillColor=none;" vertex="1" parent="1PxclfP2Zs6_VL7mTuX3-0">
          <mxGeometry y="24" width="50" height="30" as="geometry" />
        </mxCell>
        <mxCell id="1PxclfP2Zs6_VL7mTuX3-5" value="ЛЕГЕНДА" style="swimlane;whiteSpace=wrap;html=1;" vertex="1" parent="WIyWlLk6GJQsqaUBKTNV-1">
          <mxGeometry x="-760" y="280" width="290" height="450" as="geometry">
            <mxRectangle x="-760" y="280" width="140" height="30" as="alternateBounds" />
          </mxGeometry>
        </mxCell>
        <mxCell id="1PxclfP2Zs6_VL7mTuX3-10" value="" style="rounded=0;html=1;jettySize=auto;orthogonalLoop=1;fontSize=11;endArrow=block;endFill=0;endSize=8;strokeWidth=1;shadow=0;labelBackgroundColor=none;edgeStyle=orthogonalEdgeStyle;exitX=1;exitY=0.5;exitDx=0;exitDy=0;dashed=1;" edge="1" parent="1PxclfP2Zs6_VL7mTuX3-5">
          <mxGeometry relative="1" as="geometry">
            <mxPoint x="15" y="45" as="sourcePoint" />
            <mxPoint x="85" y="45" as="targetPoint" />
            <Array as="points" />
          </mxGeometry>
        </mxCell>
        <mxCell id="1PxclfP2Zs6_VL7mTuX3-11" value="Наследование" style="text;html=1;align=center;verticalAlign=middle;resizable=0;points=[];autosize=1;strokeColor=none;fillColor=none;" vertex="1" parent="1PxclfP2Zs6_VL7mTuX3-5">
          <mxGeometry x="85" y="30" width="100" height="30" as="geometry" />
        </mxCell>
        <mxCell id="1PxclfP2Zs6_VL7mTuX3-12" value="" style="shape=flexArrow;endArrow=classic;startArrow=classic;html=1;rounded=0;" edge="1" parent="1PxclfP2Zs6_VL7mTuX3-5">
          <mxGeometry width="100" height="100" relative="1" as="geometry">
            <mxPoint x="20.5" y="87" as="sourcePoint" />
            <mxPoint x="90.5" y="87" as="targetPoint" />
          </mxGeometry>
        </mxCell>
        <mxCell id="1PxclfP2Zs6_VL7mTuX3-13" value="Связь через Moxy" style="text;html=1;align=center;verticalAlign=middle;resizable=0;points=[];autosize=1;strokeColor=none;fillColor=none;" vertex="1" parent="1PxclfP2Zs6_VL7mTuX3-5">
          <mxGeometry x="89.5" y="73" width="120" height="30" as="geometry" />
        </mxCell>
        <mxCell id="1PxclfP2Zs6_VL7mTuX3-14" style="edgeStyle=orthogonalEdgeStyle;rounded=0;orthogonalLoop=1;jettySize=auto;html=1;entryX=0;entryY=0.5;entryDx=0;entryDy=0;" edge="1" parent="1PxclfP2Zs6_VL7mTuX3-5">
          <mxGeometry relative="1" as="geometry">
            <mxPoint x="20.5" y="138" as="sourcePoint" />
            <mxPoint x="90.5" y="138" as="targetPoint" />
          </mxGeometry>
        </mxCell>
        <mxCell id="1PxclfP2Zs6_VL7mTuX3-15" value="Инициализирует инстанс" style="text;html=1;align=center;verticalAlign=middle;resizable=0;points=[];autosize=1;strokeColor=none;fillColor=none;" vertex="1" parent="1PxclfP2Zs6_VL7mTuX3-5">
          <mxGeometry x="89.5" y="123" width="160" height="30" as="geometry" />
        </mxCell>
        <mxCell id="1PxclfP2Zs6_VL7mTuX3-16" value="Фрагмент" style="rounded=1;whiteSpace=wrap;html=1;fontSize=12;glass=0;strokeWidth=1;shadow=0;fillColor=#e1d5e7;strokeColor=#9673a6;" vertex="1" parent="1PxclfP2Zs6_VL7mTuX3-5">
          <mxGeometry x="20.5" y="177" width="120" height="40" as="geometry" />
        </mxCell>
        <mxCell id="1PxclfP2Zs6_VL7mTuX3-17" value="Активити" style="rounded=1;whiteSpace=wrap;html=1;fontSize=12;glass=0;strokeWidth=1;shadow=0;fillColor=#dae8fc;strokeColor=#6c8ebf;" vertex="1" parent="1PxclfP2Zs6_VL7mTuX3-5">
          <mxGeometry x="20.5" y="297" width="120" height="40" as="geometry" />
        </mxCell>
        <mxCell id="1PxclfP2Zs6_VL7mTuX3-18" value="Класс" style="rounded=1;whiteSpace=wrap;html=1;fontSize=12;glass=0;strokeWidth=1;shadow=0;fillColor=#fff2cc;strokeColor=#d6b656;" vertex="1" parent="1PxclfP2Zs6_VL7mTuX3-5">
          <mxGeometry x="20.5" y="359" width="120" height="40" as="geometry" />
        </mxCell>
        <mxCell id="1PxclfP2Zs6_VL7mTuX3-86" value="Презентор" style="rounded=1;whiteSpace=wrap;html=1;fontSize=12;glass=0;strokeWidth=1;shadow=0;fillColor=#d5e8d4;strokeColor=#82b366;" vertex="1" parent="1PxclfP2Zs6_VL7mTuX3-5">
          <mxGeometry x="20.5" y="238" width="120" height="40" as="geometry" />
        </mxCell>
        <mxCell id="1PxclfP2Zs6_VL7mTuX3-20" style="edgeStyle=orthogonalEdgeStyle;rounded=0;orthogonalLoop=1;jettySize=auto;html=1;exitX=0.5;exitY=1;exitDx=0;exitDy=0;entryX=0.5;entryY=0;entryDx=0;entryDy=0;" edge="1" parent="WIyWlLk6GJQsqaUBKTNV-1" source="BQwGy1CQVx7rT-iq4Jp_-4" target="1PxclfP2Zs6_VL7mTuX3-19">
          <mxGeometry relative="1" as="geometry">
            <mxPoint x="481" y="220" as="sourcePoint" />
            <mxPoint x="561" y="220" as="targetPoint" />
          </mxGeometry>
        </mxCell>
        <mxCell id="1PxclfP2Zs6_VL7mTuX3-21" value="GeneralSettingListFragment" style="rounded=1;whiteSpace=wrap;html=1;fontSize=12;glass=0;strokeWidth=1;shadow=0;fillColor=#e1d5e7;strokeColor=#9673a6;" vertex="1" parent="WIyWlLk6GJQsqaUBKTNV-1">
          <mxGeometry x="440" y="580" width="160" height="40" as="geometry" />
        </mxCell>
        <mxCell id="1PxclfP2Zs6_VL7mTuX3-22" style="edgeStyle=orthogonalEdgeStyle;rounded=0;orthogonalLoop=1;jettySize=auto;html=1;exitX=0.5;exitY=1;exitDx=0;exitDy=0;entryX=0.5;entryY=0;entryDx=0;entryDy=0;" edge="1" parent="WIyWlLk6GJQsqaUBKTNV-1" source="BQwGy1CQVx7rT-iq4Jp_-4" target="1PxclfP2Zs6_VL7mTuX3-21">
          <mxGeometry relative="1" as="geometry">
            <mxPoint x="231" y="520" as="sourcePoint" />
            <mxPoint x="232" y="590" as="targetPoint" />
          </mxGeometry>
        </mxCell>
        <mxCell id="1PxclfP2Zs6_VL7mTuX3-23" value="ServicePasswordFragment" style="rounded=1;whiteSpace=wrap;html=1;fontSize=12;glass=0;strokeWidth=1;shadow=0;fillColor=#e1d5e7;strokeColor=#9673a6;" vertex="1" parent="WIyWlLk6GJQsqaUBKTNV-1">
          <mxGeometry x="251" y="580" width="160" height="40" as="geometry" />
        </mxCell>
        <mxCell id="1PxclfP2Zs6_VL7mTuX3-24" style="edgeStyle=orthogonalEdgeStyle;rounded=0;orthogonalLoop=1;jettySize=auto;html=1;exitX=0.5;exitY=1;exitDx=0;exitDy=0;entryX=0.5;entryY=0;entryDx=0;entryDy=0;" edge="1" parent="WIyWlLk6GJQsqaUBKTNV-1" source="BQwGy1CQVx7rT-iq4Jp_-4" target="1PxclfP2Zs6_VL7mTuX3-23">
          <mxGeometry relative="1" as="geometry">
            <mxPoint x="231" y="520" as="sourcePoint" />
            <mxPoint x="232" y="590" as="targetPoint" />
          </mxGeometry>
        </mxCell>
        <mxCell id="1PxclfP2Zs6_VL7mTuX3-27" value="" style="group" vertex="1" connectable="0" parent="WIyWlLk6GJQsqaUBKTNV-1">
          <mxGeometry x="-60" y="80" width="120" height="80" as="geometry" />
        </mxCell>
        <mxCell id="BQwGy1CQVx7rT-iq4Jp_-2" value="Basic Activity" style="rounded=1;whiteSpace=wrap;html=1;fontSize=12;glass=0;strokeWidth=1;shadow=0;fillColor=#dae8fc;strokeColor=#6c8ebf;" parent="1PxclfP2Zs6_VL7mTuX3-27" vertex="1">
          <mxGeometry width="120" height="40" as="geometry" />
        </mxCell>
        <mxCell id="BQwGy1CQVx7rT-iq4Jp_-8" value="выбор котла после логина" style="rounded=0;whiteSpace=wrap;html=1;fontColor=#8c8c8c;" parent="1PxclfP2Zs6_VL7mTuX3-27" vertex="1">
          <mxGeometry y="40" width="120" height="40" as="geometry" />
        </mxCell>
        <mxCell id="1PxclfP2Zs6_VL7mTuX3-28" value="" style="rounded=0;html=1;jettySize=auto;orthogonalLoop=1;fontSize=11;endArrow=block;endFill=0;endSize=8;strokeWidth=1;shadow=0;labelBackgroundColor=none;edgeStyle=orthogonalEdgeStyle;exitX=1;exitY=0.5;exitDx=0;exitDy=0;entryX=0;entryY=0.5;entryDx=0;entryDy=0;dashed=1;" edge="1" parent="WIyWlLk6GJQsqaUBKTNV-1" source="WIyWlLk6GJQsqaUBKTNV-3" target="BQwGy1CQVx7rT-iq4Jp_-1">
          <mxGeometry relative="1" as="geometry">
            <mxPoint x="230" y="90" as="sourcePoint" />
            <mxPoint x="231" y="50" as="targetPoint" />
            <Array as="points" />
          </mxGeometry>
        </mxCell>
        <mxCell id="1PxclfP2Zs6_VL7mTuX3-36" value="GeneralSettingListPresenter" style="rounded=1;whiteSpace=wrap;html=1;fontSize=12;glass=0;strokeWidth=1;shadow=0;fillColor=#d5e8d4;strokeColor=#82b366;" vertex="1" parent="WIyWlLk6GJQsqaUBKTNV-1">
          <mxGeometry x="435" y="670" width="170" height="40" as="geometry" />
        </mxCell>
        <mxCell id="1PxclfP2Zs6_VL7mTuX3-37" value="" style="shape=flexArrow;endArrow=classic;startArrow=classic;html=1;rounded=0;entryX=0.5;entryY=1;entryDx=0;entryDy=0;exitX=0.5;exitY=0;exitDx=0;exitDy=0;" edge="1" source="1PxclfP2Zs6_VL7mTuX3-36" parent="WIyWlLk6GJQsqaUBKTNV-1" target="1PxclfP2Zs6_VL7mTuX3-21">
          <mxGeometry width="100" height="100" relative="1" as="geometry">
            <mxPoint x="458" y="870" as="sourcePoint" />
            <mxPoint x="519" y="620" as="targetPoint" />
          </mxGeometry>
        </mxCell>
        <mxCell id="1PxclfP2Zs6_VL7mTuX3-38" value="ActionDialogFragment" style="rounded=1;whiteSpace=wrap;html=1;fontSize=12;glass=0;strokeWidth=1;shadow=0;" vertex="1" parent="WIyWlLk6GJQsqaUBKTNV-1">
          <mxGeometry x="-800" y="790" width="160" height="40" as="geometry" />
        </mxCell>
        <mxCell id="1PxclfP2Zs6_VL7mTuX3-39" value="DeviceSettingListFragment" style="rounded=1;whiteSpace=wrap;html=1;fontSize=12;glass=0;strokeWidth=1;shadow=0;" vertex="1" parent="WIyWlLk6GJQsqaUBKTNV-1">
          <mxGeometry x="-800" y="844" width="160" height="40" as="geometry" />
        </mxCell>
        <mxCell id="1PxclfP2Zs6_VL7mTuX3-42" value="MalfunctionFragment" style="rounded=1;whiteSpace=wrap;html=1;fontSize=12;glass=0;strokeWidth=1;shadow=0;fillColor=#e1d5e7;strokeColor=#9673a6;" vertex="1" parent="WIyWlLk6GJQsqaUBKTNV-1">
          <mxGeometry x="628" y="816" width="160" height="40" as="geometry" />
        </mxCell>
        <mxCell id="1PxclfP2Zs6_VL7mTuX3-43" value="PeriodFragment" style="rounded=1;whiteSpace=wrap;html=1;fontSize=12;glass=0;strokeWidth=1;shadow=0;" vertex="1" parent="WIyWlLk6GJQsqaUBKTNV-1">
          <mxGeometry x="-800" y="1050" width="160" height="40" as="geometry" />
        </mxCell>
        <mxCell id="1PxclfP2Zs6_VL7mTuX3-44" value="PinFragment" style="rounded=1;whiteSpace=wrap;html=1;fontSize=12;glass=0;strokeWidth=1;shadow=0;fillColor=#e1d5e7;strokeColor=#9673a6;" vertex="1" parent="WIyWlLk6GJQsqaUBKTNV-1">
          <mxGeometry x="630" y="-38" width="160" height="40" as="geometry" />
        </mxCell>
        <mxCell id="1PxclfP2Zs6_VL7mTuX3-45" value="QrCodeFragment" style="rounded=1;whiteSpace=wrap;html=1;fontSize=12;glass=0;strokeWidth=1;shadow=0;" vertex="1" parent="WIyWlLk6GJQsqaUBKTNV-1">
          <mxGeometry x="-630" y="950" width="160" height="40" as="geometry" />
        </mxCell>
        <mxCell id="1PxclfP2Zs6_VL7mTuX3-46" value="QrPreSelectionFragment" style="rounded=1;whiteSpace=wrap;html=1;fontSize=12;glass=0;strokeWidth=1;shadow=0;" vertex="1" parent="WIyWlLk6GJQsqaUBKTNV-1">
          <mxGeometry x="-630" y="1000" width="160" height="40" as="geometry" />
        </mxCell>
        <mxCell id="1PxclfP2Zs6_VL7mTuX3-47" value="RequestFragment" style="rounded=1;whiteSpace=wrap;html=1;fontSize=12;glass=0;strokeWidth=1;shadow=0;" vertex="1" parent="WIyWlLk6GJQsqaUBKTNV-1">
          <mxGeometry x="-630" y="1050" width="160" height="40" as="geometry" />
        </mxCell>
        <mxCell id="1PxclfP2Zs6_VL7mTuX3-48" value="RestorePassword2Fragment" style="rounded=1;whiteSpace=wrap;html=1;fontSize=12;glass=0;strokeWidth=1;shadow=0;" vertex="1" parent="WIyWlLk6GJQsqaUBKTNV-1">
          <mxGeometry x="-440" y="890" width="160" height="40" as="geometry" />
        </mxCell>
        <mxCell id="1PxclfP2Zs6_VL7mTuX3-49" value="RestorePasswordFragment" style="rounded=1;whiteSpace=wrap;html=1;fontSize=12;glass=0;strokeWidth=1;shadow=0;" vertex="1" parent="WIyWlLk6GJQsqaUBKTNV-1">
          <mxGeometry x="-440" y="950" width="160" height="40" as="geometry" />
        </mxCell>
        <mxCell id="1PxclfP2Zs6_VL7mTuX3-51" value="ServicePasswordFragment" style="rounded=1;whiteSpace=wrap;html=1;fontSize=12;glass=0;strokeWidth=1;shadow=0;" vertex="1" parent="WIyWlLk6GJQsqaUBKTNV-1">
          <mxGeometry x="-440" y="1000" width="160" height="40" as="geometry" />
        </mxCell>
        <mxCell id="1PxclfP2Zs6_VL7mTuX3-53" value="SignUpFragment" style="rounded=1;whiteSpace=wrap;html=1;fontSize=12;glass=0;strokeWidth=1;shadow=0;fillColor=#e1d5e7;strokeColor=#9673a6;" vertex="1" parent="WIyWlLk6GJQsqaUBKTNV-1">
          <mxGeometry x="840" y="-40" width="160" height="40" as="geometry" />
        </mxCell>
        <mxCell id="1PxclfP2Zs6_VL7mTuX3-54" value="StatChartSettingFragment" style="rounded=1;whiteSpace=wrap;html=1;fontSize=12;glass=0;strokeWidth=1;shadow=0;" vertex="1" parent="WIyWlLk6GJQsqaUBKTNV-1">
          <mxGeometry x="-260" y="950" width="160" height="40" as="geometry" />
        </mxCell>
        <mxCell id="1PxclfP2Zs6_VL7mTuX3-55" value="StatisticsInfoFragment" style="rounded=1;whiteSpace=wrap;html=1;fontSize=12;glass=0;strokeWidth=1;shadow=0;" vertex="1" parent="WIyWlLk6GJQsqaUBKTNV-1">
          <mxGeometry x="-260" y="1000" width="160" height="40" as="geometry" />
        </mxCell>
        <mxCell id="1PxclfP2Zs6_VL7mTuX3-56" value="StatTableSettingFormat" style="rounded=1;whiteSpace=wrap;html=1;fontSize=12;glass=0;strokeWidth=1;shadow=0;" vertex="1" parent="WIyWlLk6GJQsqaUBKTNV-1">
          <mxGeometry x="-260" y="1050" width="160" height="40" as="geometry" />
        </mxCell>
        <mxCell id="1PxclfP2Zs6_VL7mTuX3-57" value="StopBoilerDialogFormat" style="rounded=1;whiteSpace=wrap;html=1;fontSize=12;glass=0;strokeWidth=1;shadow=0;" vertex="1" parent="WIyWlLk6GJQsqaUBKTNV-1">
          <mxGeometry x="-80" y="890" width="160" height="40" as="geometry" />
        </mxCell>
        <mxCell id="1PxclfP2Zs6_VL7mTuX3-59" value="ThermostatProgFragment" style="rounded=1;whiteSpace=wrap;html=1;fontSize=12;glass=0;strokeWidth=1;shadow=0;" vertex="1" parent="WIyWlLk6GJQsqaUBKTNV-1">
          <mxGeometry x="-80" y="1000" width="160" height="40" as="geometry" />
        </mxCell>
        <mxCell id="1PxclfP2Zs6_VL7mTuX3-60" value="TouchFragment&lt;br&gt;закомменчено" style="rounded=1;whiteSpace=wrap;html=1;fontSize=12;glass=0;strokeWidth=1;shadow=0;" vertex="1" parent="WIyWlLk6GJQsqaUBKTNV-1">
          <mxGeometry x="1040" y="200" width="160" height="40" as="geometry" />
        </mxCell>
        <mxCell id="1PxclfP2Zs6_VL7mTuX3-61" value="UpdateDialogFragment" style="rounded=1;whiteSpace=wrap;html=1;fontSize=12;glass=0;strokeWidth=1;shadow=0;" vertex="1" parent="WIyWlLk6GJQsqaUBKTNV-1">
          <mxGeometry x="110" y="890" width="160" height="40" as="geometry" />
        </mxCell>
        <mxCell id="1PxclfP2Zs6_VL7mTuX3-62" value="UserSecutityFragment" style="rounded=1;whiteSpace=wrap;html=1;fontSize=12;glass=0;strokeWidth=1;shadow=0;" vertex="1" parent="WIyWlLk6GJQsqaUBKTNV-1">
          <mxGeometry x="110" y="950" width="160" height="40" as="geometry" />
        </mxCell>
        <mxCell id="1PxclfP2Zs6_VL7mTuX3-63" value="UserSettingListFragment" style="rounded=1;whiteSpace=wrap;html=1;fontSize=12;glass=0;strokeWidth=1;shadow=0;" vertex="1" parent="WIyWlLk6GJQsqaUBKTNV-1">
          <mxGeometry x="110" y="1000" width="160" height="40" as="geometry" />
        </mxCell>
        <mxCell id="1PxclfP2Zs6_VL7mTuX3-64" value="MalfunctionPagerAdapter" style="rounded=1;whiteSpace=wrap;html=1;fontSize=12;glass=0;strokeWidth=1;shadow=0;fillColor=#fff2cc;strokeColor=#d6b656;" vertex="1" parent="WIyWlLk6GJQsqaUBKTNV-1">
          <mxGeometry x="623" y="736" width="170" height="40" as="geometry" />
        </mxCell>
        <mxCell id="1PxclfP2Zs6_VL7mTuX3-65" style="edgeStyle=orthogonalEdgeStyle;rounded=0;orthogonalLoop=1;jettySize=auto;html=1;exitX=0.5;exitY=1;exitDx=0;exitDy=0;entryX=0.5;entryY=0;entryDx=0;entryDy=0;" edge="1" parent="WIyWlLk6GJQsqaUBKTNV-1" source="1PxclfP2Zs6_VL7mTuX3-64" target="1PxclfP2Zs6_VL7mTuX3-42">
          <mxGeometry relative="1" as="geometry">
            <mxPoint x="13" y="596" as="sourcePoint" />
            <mxPoint x="483" y="666" as="targetPoint" />
          </mxGeometry>
        </mxCell>
        <mxCell id="1PxclfP2Zs6_VL7mTuX3-66" style="edgeStyle=orthogonalEdgeStyle;rounded=0;orthogonalLoop=1;jettySize=auto;html=1;entryX=0.5;entryY=0;entryDx=0;entryDy=0;exitX=0.5;exitY=1;exitDx=0;exitDy=0;" edge="1" parent="WIyWlLk6GJQsqaUBKTNV-1" source="1PxclfP2Zs6_VL7mTuX3-67" target="1PxclfP2Zs6_VL7mTuX3-64">
          <mxGeometry relative="1" as="geometry">
            <mxPoint x="950" y="736" as="sourcePoint" />
            <mxPoint x="706" y="760" as="targetPoint" />
          </mxGeometry>
        </mxCell>
        <mxCell id="1PxclfP2Zs6_VL7mTuX3-71" value="" style="group" vertex="1" connectable="0" parent="WIyWlLk6GJQsqaUBKTNV-1">
          <mxGeometry x="628" y="580" width="162" height="140" as="geometry" />
        </mxCell>
        <mxCell id="1PxclfP2Zs6_VL7mTuX3-19" value="MalfunctionPagerFragment" style="rounded=1;whiteSpace=wrap;html=1;fontSize=12;glass=0;strokeWidth=1;shadow=0;fillColor=#e1d5e7;strokeColor=#9673a6;" vertex="1" parent="1PxclfP2Zs6_VL7mTuX3-71">
          <mxGeometry width="160" height="40" as="geometry" />
        </mxCell>
        <mxCell id="1PxclfP2Zs6_VL7mTuX3-67" value="class intro" style="swimlane;whiteSpace=wrap;html=1;" vertex="1" collapsed="1" parent="1PxclfP2Zs6_VL7mTuX3-71">
          <mxGeometry y="40" width="100" height="30" as="geometry">
            <mxRectangle y="40" width="162" height="100" as="alternateBounds" />
          </mxGeometry>
        </mxCell>
        <mxCell id="1PxclfP2Zs6_VL7mTuX3-68" value="PagerView" style="text;html=1;align=left;verticalAlign=middle;resizable=0;points=[];autosize=1;strokeColor=none;fillColor=none;" vertex="1" parent="1PxclfP2Zs6_VL7mTuX3-67">
          <mxGeometry y="22" width="80" height="30" as="geometry" />
        </mxCell>
        <mxCell id="1PxclfP2Zs6_VL7mTuX3-96" style="edgeStyle=orthogonalEdgeStyle;rounded=0;orthogonalLoop=1;jettySize=auto;html=1;exitX=0.5;exitY=1;exitDx=0;exitDy=0;entryX=0.5;entryY=0;entryDx=0;entryDy=0;" edge="1" parent="WIyWlLk6GJQsqaUBKTNV-1" source="BQwGy1CQVx7rT-iq4Jp_-4" target="1PxclfP2Zs6_VL7mTuX3-52">
          <mxGeometry relative="1" as="geometry">
            <mxPoint x="230" y="520" as="sourcePoint" />
            <mxPoint x="141" y="590" as="targetPoint" />
          </mxGeometry>
        </mxCell>
        <mxCell id="1PxclfP2Zs6_VL7mTuX3-52" value="SettingPagerFragment" style="rounded=1;whiteSpace=wrap;html=1;fontSize=12;glass=0;strokeWidth=1;shadow=0;fillColor=#e1d5e7;strokeColor=#9673a6;" vertex="1" parent="WIyWlLk6GJQsqaUBKTNV-1">
          <mxGeometry x="-150" y="580" width="160" height="40" as="geometry" />
        </mxCell>
        <mxCell id="1PxclfP2Zs6_VL7mTuX3-94" value="SettingPagerPresenter" style="rounded=1;whiteSpace=wrap;html=1;fontSize=12;glass=0;strokeWidth=1;shadow=0;fillColor=#d5e8d4;strokeColor=#82b366;" vertex="1" parent="WIyWlLk6GJQsqaUBKTNV-1">
          <mxGeometry x="-140" y="670" width="140" height="40" as="geometry" />
        </mxCell>
        <mxCell id="1PxclfP2Zs6_VL7mTuX3-95" value="" style="shape=flexArrow;endArrow=classic;startArrow=classic;html=1;rounded=0;entryX=0.5;entryY=1;entryDx=0;entryDy=0;exitX=0.5;exitY=0;exitDx=0;exitDy=0;" edge="1" parent="WIyWlLk6GJQsqaUBKTNV-1" source="1PxclfP2Zs6_VL7mTuX3-94" target="1PxclfP2Zs6_VL7mTuX3-52">
          <mxGeometry width="100" height="100" relative="1" as="geometry">
            <mxPoint x="141" y="680" as="sourcePoint" />
            <mxPoint x="141" y="630" as="targetPoint" />
          </mxGeometry>
        </mxCell>
        <mxCell id="1PxclfP2Zs6_VL7mTuX3-25" value="SettingFragment" style="rounded=1;whiteSpace=wrap;html=1;fontSize=12;glass=0;strokeWidth=1;shadow=0;fillColor=#e1d5e7;strokeColor=#9673a6;" vertex="1" parent="WIyWlLk6GJQsqaUBKTNV-1">
          <mxGeometry x="40" y="660" width="160" height="40" as="geometry" />
        </mxCell>
        <mxCell id="1PxclfP2Zs6_VL7mTuX3-29" value="SettingPresenter" style="rounded=1;whiteSpace=wrap;html=1;fontSize=12;glass=0;strokeWidth=1;shadow=0;fillColor=#d5e8d4;strokeColor=#82b366;" vertex="1" parent="WIyWlLk6GJQsqaUBKTNV-1">
          <mxGeometry x="50" y="750" width="140" height="40" as="geometry" />
        </mxCell>
        <mxCell id="1PxclfP2Zs6_VL7mTuX3-31" value="" style="shape=flexArrow;endArrow=classic;startArrow=classic;html=1;rounded=0;entryX=0.5;entryY=1;entryDx=0;entryDy=0;exitX=0.5;exitY=0;exitDx=0;exitDy=0;" edge="1" parent="WIyWlLk6GJQsqaUBKTNV-1" source="1PxclfP2Zs6_VL7mTuX3-29" target="1PxclfP2Zs6_VL7mTuX3-25">
          <mxGeometry width="100" height="100" relative="1" as="geometry">
            <mxPoint x="59" y="950" as="sourcePoint" />
            <mxPoint x="159" y="850" as="targetPoint" />
          </mxGeometry>
        </mxCell>
        <mxCell id="1PxclfP2Zs6_VL7mTuX3-97" style="edgeStyle=orthogonalEdgeStyle;rounded=0;orthogonalLoop=1;jettySize=auto;html=1;exitX=1;exitY=0.5;exitDx=0;exitDy=0;entryX=0.5;entryY=0;entryDx=0;entryDy=0;" edge="1" parent="WIyWlLk6GJQsqaUBKTNV-1" source="1PxclfP2Zs6_VL7mTuX3-52" target="1PxclfP2Zs6_VL7mTuX3-25">
          <mxGeometry relative="1" as="geometry">
            <mxPoint x="230" y="520" as="sourcePoint" />
            <mxPoint x="-60" y="590" as="targetPoint" />
          </mxGeometry>
        </mxCell>
        <mxCell id="1PxclfP2Zs6_VL7mTuX3-115" value="MoxyReflector" style="swimlane;whiteSpace=wrap;html=1;" vertex="1" parent="WIyWlLk6GJQsqaUBKTNV-1">
          <mxGeometry x="580" y="-850" width="580" height="639" as="geometry" />
        </mxCell>
        <mxCell id="1PxclfP2Zs6_VL7mTuX3-40" value="InfoFragment" style="rounded=1;whiteSpace=wrap;html=1;fontSize=12;glass=0;strokeWidth=1;shadow=0;fillColor=#e1d5e7;strokeColor=#9673a6;" vertex="1" parent="1PxclfP2Zs6_VL7mTuX3-115">
          <mxGeometry x="315" y="189" width="160" height="40" as="geometry" />
        </mxCell>
        <mxCell id="1PxclfP2Zs6_VL7mTuX3-80" value="InfoPresentor" style="rounded=1;whiteSpace=wrap;html=1;fontSize=12;glass=0;strokeWidth=1;shadow=0;fillColor=#d5e8d4;strokeColor=#82b366;" vertex="1" parent="1PxclfP2Zs6_VL7mTuX3-115">
          <mxGeometry x="325" y="284" width="140" height="40" as="geometry" />
        </mxCell>
        <mxCell id="1PxclfP2Zs6_VL7mTuX3-85" value="" style="shape=flexArrow;endArrow=classic;startArrow=classic;html=1;rounded=0;entryX=0.5;entryY=1;entryDx=0;entryDy=0;exitX=0.5;exitY=0;exitDx=0;exitDy=0;" edge="1" parent="1PxclfP2Zs6_VL7mTuX3-115" source="1PxclfP2Zs6_VL7mTuX3-80" target="1PxclfP2Zs6_VL7mTuX3-40">
          <mxGeometry width="100" height="100" relative="1" as="geometry">
            <mxPoint x="726" y="494" as="sourcePoint" />
            <mxPoint x="726" y="444" as="targetPoint" />
          </mxGeometry>
        </mxCell>
        <mxCell id="1PxclfP2Zs6_VL7mTuX3-87" value="InfoFragment$$PresentersBinder" style="rounded=1;whiteSpace=wrap;html=1;fontSize=12;glass=0;strokeWidth=1;shadow=0;fillColor=#d5e8d4;strokeColor=#82b366;" vertex="1" parent="1PxclfP2Zs6_VL7mTuX3-115">
          <mxGeometry x="279" y="94" width="230" height="40" as="geometry" />
        </mxCell>
        <mxCell id="1PxclfP2Zs6_VL7mTuX3-88" value="" style="shape=flexArrow;endArrow=classic;startArrow=classic;html=1;rounded=0;entryX=0.5;entryY=1;entryDx=0;entryDy=0;exitX=0.5;exitY=0;exitDx=0;exitDy=0;" edge="1" parent="1PxclfP2Zs6_VL7mTuX3-115" source="1PxclfP2Zs6_VL7mTuX3-40" target="1PxclfP2Zs6_VL7mTuX3-87">
          <mxGeometry width="100" height="100" relative="1" as="geometry">
            <mxPoint x="405" y="294" as="sourcePoint" />
            <mxPoint x="395" y="134" as="targetPoint" />
          </mxGeometry>
        </mxCell>
        <mxCell id="1PxclfP2Zs6_VL7mTuX3-73" value="abstract InfoFactory" style="rounded=1;whiteSpace=wrap;html=1;fontSize=12;glass=0;strokeWidth=1;shadow=0;fillColor=#fff2cc;strokeColor=#d6b656;" vertex="1" parent="1PxclfP2Zs6_VL7mTuX3-115">
          <mxGeometry x="315" y="365" width="160" height="40" as="geometry" />
        </mxCell>
        <mxCell id="1PxclfP2Zs6_VL7mTuX3-72" style="edgeStyle=orthogonalEdgeStyle;rounded=0;orthogonalLoop=1;jettySize=auto;html=1;exitX=0.5;exitY=1;exitDx=0;exitDy=0;entryX=0.5;entryY=0;entryDx=0;entryDy=0;" edge="1" parent="1PxclfP2Zs6_VL7mTuX3-115" source="1PxclfP2Zs6_VL7mTuX3-80" target="1PxclfP2Zs6_VL7mTuX3-73">
          <mxGeometry relative="1" as="geometry">
            <mxPoint x="265" y="304" as="sourcePoint" />
            <mxPoint x="266" y="344" as="targetPoint" />
          </mxGeometry>
        </mxCell>
        <mxCell id="1PxclfP2Zs6_VL7mTuX3-77" value="типы инфо фактори для котлов" style="swimlane;whiteSpace=wrap;html=1;" vertex="1" collapsed="1" parent="1PxclfP2Zs6_VL7mTuX3-115">
          <mxGeometry x="315" y="454" width="210" height="30" as="geometry">
            <mxRectangle x="315" y="454" width="220" height="185" as="alternateBounds" />
          </mxGeometry>
        </mxCell>
        <mxCell id="1PxclfP2Zs6_VL7mTuX3-78" value="-InfoFactory&lt;br&gt;-LuxInfoFactory&lt;br&gt;-MagnaInfoFactory&lt;br&gt;-MaximaInfoFactory&lt;br&gt;-MskPlusInfoFactory&lt;br&gt;-OptimaInfoFactory&lt;br&gt;-PelletInfoFactory&lt;br&gt;-SmartInfoFactory&lt;br&gt;-SmartSEFactory&lt;br&gt;-StahtnovInfoFactory" style="text;html=1;align=left;verticalAlign=middle;resizable=0;points=[];autosize=1;strokeColor=none;fillColor=none;" vertex="1" parent="1PxclfP2Zs6_VL7mTuX3-77">
          <mxGeometry y="25" width="130" height="160" as="geometry" />
        </mxCell>
        <mxCell id="1PxclfP2Zs6_VL7mTuX3-82" value="" style="rounded=0;html=1;jettySize=auto;orthogonalLoop=1;fontSize=11;endArrow=block;endFill=0;endSize=8;strokeWidth=1;shadow=0;labelBackgroundColor=none;edgeStyle=orthogonalEdgeStyle;dashed=1;exitX=0.5;exitY=1;exitDx=0;exitDy=0;entryX=0.5;entryY=0;entryDx=0;entryDy=0;" edge="1" parent="1PxclfP2Zs6_VL7mTuX3-115" source="1PxclfP2Zs6_VL7mTuX3-73" target="1PxclfP2Zs6_VL7mTuX3-77">
          <mxGeometry relative="1" as="geometry">
            <mxPoint x="405" y="214" as="sourcePoint" />
            <mxPoint x="525" y="324" as="targetPoint" />
            <Array as="points" />
          </mxGeometry>
        </mxCell>
        <mxCell id="1PxclfP2Zs6_VL7mTuX3-41" value="LoginFragment" style="rounded=1;whiteSpace=wrap;html=1;fontSize=12;glass=0;strokeWidth=1;shadow=0;fillColor=#e1d5e7;strokeColor=#9673a6;" vertex="1" parent="1PxclfP2Zs6_VL7mTuX3-115">
          <mxGeometry x="45" y="318" width="160" height="40" as="geometry" />
        </mxCell>
        <mxCell id="1PxclfP2Zs6_VL7mTuX3-111" value="LoginPresenter" style="rounded=1;whiteSpace=wrap;html=1;fontSize=12;glass=0;strokeWidth=1;shadow=0;fillColor=#d5e8d4;strokeColor=#82b366;" vertex="1" parent="1PxclfP2Zs6_VL7mTuX3-115">
          <mxGeometry x="55" y="424" width="140" height="40" as="geometry" />
        </mxCell>
        <mxCell id="1PxclfP2Zs6_VL7mTuX3-112" value="" style="shape=flexArrow;endArrow=classic;startArrow=classic;html=1;rounded=0;entryX=0.5;entryY=1;entryDx=0;entryDy=0;exitX=0.5;exitY=0;exitDx=0;exitDy=0;" edge="1" parent="1PxclfP2Zs6_VL7mTuX3-115" source="1PxclfP2Zs6_VL7mTuX3-111" target="1PxclfP2Zs6_VL7mTuX3-41">
          <mxGeometry width="100" height="100" relative="1" as="geometry">
            <mxPoint x="-125" y="230" as="sourcePoint" />
            <mxPoint x="-125" y="180" as="targetPoint" />
          </mxGeometry>
        </mxCell>
        <mxCell id="1PxclfP2Zs6_VL7mTuX3-113" value="LoginFragment$$PresentersBinder" style="rounded=1;whiteSpace=wrap;html=1;fontSize=12;glass=0;strokeWidth=1;shadow=0;fillColor=#d5e8d4;strokeColor=#82b366;" vertex="1" parent="1PxclfP2Zs6_VL7mTuX3-115">
          <mxGeometry x="20" y="212.5" width="230" height="40" as="geometry" />
        </mxCell>
        <mxCell id="1PxclfP2Zs6_VL7mTuX3-114" value="" style="shape=flexArrow;endArrow=classic;startArrow=classic;html=1;rounded=0;entryX=0.458;entryY=0.989;entryDx=0;entryDy=0;exitX=0.5;exitY=0;exitDx=0;exitDy=0;entryPerimeter=0;" edge="1" parent="1PxclfP2Zs6_VL7mTuX3-115" source="1PxclfP2Zs6_VL7mTuX3-41" target="1PxclfP2Zs6_VL7mTuX3-113">
          <mxGeometry width="100" height="100" relative="1" as="geometry">
            <mxPoint x="135" y="434" as="sourcePoint" />
            <mxPoint x="135" y="368" as="targetPoint" />
          </mxGeometry>
        </mxCell>
        <mxCell id="1PxclfP2Zs6_VL7mTuX3-117" style="edgeStyle=orthogonalEdgeStyle;rounded=0;orthogonalLoop=1;jettySize=auto;html=1;exitX=0.5;exitY=0;exitDx=0;exitDy=0;entryX=0.5;entryY=1;entryDx=0;entryDy=0;" edge="1" parent="WIyWlLk6GJQsqaUBKTNV-1" source="BQwGy1CQVx7rT-iq4Jp_-29" target="1PxclfP2Zs6_VL7mTuX3-44">
          <mxGeometry relative="1" as="geometry">
            <mxPoint x="560" y="110" as="sourcePoint" />
            <mxPoint x="640" y="110" as="targetPoint" />
          </mxGeometry>
        </mxCell>
        <mxCell id="1PxclfP2Zs6_VL7mTuX3-118" value="PinPresenter" style="rounded=1;whiteSpace=wrap;html=1;fontSize=12;glass=0;strokeWidth=1;shadow=0;fillColor=#d5e8d4;strokeColor=#82b366;" vertex="1" parent="WIyWlLk6GJQsqaUBKTNV-1">
          <mxGeometry x="625" y="-160" width="170" height="40" as="geometry" />
        </mxCell>
        <mxCell id="1PxclfP2Zs6_VL7mTuX3-119" value="" style="shape=flexArrow;endArrow=classic;startArrow=classic;html=1;rounded=0;entryX=0.5;entryY=1;entryDx=0;entryDy=0;exitX=0.5;exitY=0;exitDx=0;exitDy=0;" edge="1" parent="WIyWlLk6GJQsqaUBKTNV-1" source="1PxclfP2Zs6_VL7mTuX3-44" target="1PxclfP2Zs6_VL7mTuX3-118">
          <mxGeometry width="100" height="100" relative="1" as="geometry">
            <mxPoint x="531" y="692" as="sourcePoint" />
            <mxPoint x="531" y="642" as="targetPoint" />
          </mxGeometry>
        </mxCell>
        <mxCell id="BQwGy1CQVx7rT-iq4Jp_-29" value="MainFragment" style="rounded=1;whiteSpace=wrap;html=1;fontSize=12;glass=0;strokeWidth=1;shadow=0;fillColor=#e1d5e7;strokeColor=#9673a6;" parent="WIyWlLk6GJQsqaUBKTNV-1" vertex="1">
          <mxGeometry x="631" y="78" width="160" height="45" as="geometry" />
        </mxCell>
        <mxCell id="BQwGy1CQVx7rT-iq4Jp_-33" value="Class Introduction" style="swimlane;whiteSpace=wrap;html=1;" parent="WIyWlLk6GJQsqaUBKTNV-1" vertex="1" collapsed="1">
          <mxGeometry x="631" y="135" width="160" height="30" as="geometry">
            <mxRectangle x="631" y="135" width="200" height="200" as="alternateBounds" />
          </mxGeometry>
        </mxCell>
        <mxCell id="BQwGy1CQVx7rT-iq4Jp_-34" value="Содержит контекст AutsActivity" style="text;html=1;align=center;verticalAlign=middle;resizable=0;points=[];autosize=1;strokeColor=none;fillColor=none;" parent="BQwGy1CQVx7rT-iq4Jp_-33" vertex="1">
          <mxGeometry y="24" width="200" height="30" as="geometry" />
        </mxCell>
        <mxCell id="BQwGy1CQVx7rT-iq4Jp_-37" value="Не имеет презентора&lt;br&gt;содержит фрагменты для логининга" style="text;html=1;align=left;verticalAlign=middle;resizable=0;points=[];autosize=1;strokeColor=none;fillColor=none;" parent="BQwGy1CQVx7rT-iq4Jp_-33" vertex="1">
          <mxGeometry y="49" width="230" height="40" as="geometry" />
        </mxCell>
        <mxCell id="1PxclfP2Zs6_VL7mTuX3-58" value="SuggestPinFragment" style="rounded=1;whiteSpace=wrap;html=1;fontSize=12;glass=0;strokeWidth=1;shadow=0;fillColor=#e1d5e7;strokeColor=#9673a6;" vertex="1" parent="WIyWlLk6GJQsqaUBKTNV-1">
          <mxGeometry x="840" y="200" width="160" height="40" as="geometry" />
        </mxCell>
        <mxCell id="1PxclfP2Zs6_VL7mTuX3-121" style="edgeStyle=orthogonalEdgeStyle;rounded=0;orthogonalLoop=1;jettySize=auto;html=1;exitX=1;exitY=0.5;exitDx=0;exitDy=0;entryX=0.5;entryY=0;entryDx=0;entryDy=0;" edge="1" parent="WIyWlLk6GJQsqaUBKTNV-1" source="BQwGy1CQVx7rT-iq4Jp_-29" target="1PxclfP2Zs6_VL7mTuX3-58">
          <mxGeometry relative="1" as="geometry">
            <mxPoint x="720" y="-147" as="sourcePoint" />
            <mxPoint x="720" y="-210" as="targetPoint" />
          </mxGeometry>
        </mxCell>
        <mxCell id="1PxclfP2Zs6_VL7mTuX3-123" style="edgeStyle=orthogonalEdgeStyle;rounded=0;orthogonalLoop=1;jettySize=auto;html=1;exitX=1;exitY=0.5;exitDx=0;exitDy=0;entryX=0.5;entryY=1;entryDx=0;entryDy=0;" edge="1" parent="WIyWlLk6GJQsqaUBKTNV-1" source="BQwGy1CQVx7rT-iq4Jp_-29" target="1PxclfP2Zs6_VL7mTuX3-53">
          <mxGeometry relative="1" as="geometry">
            <mxPoint x="721" y="75" as="sourcePoint" />
            <mxPoint x="720" y="12" as="targetPoint" />
          </mxGeometry>
        </mxCell>
        <mxCell id="1PxclfP2Zs6_VL7mTuX3-124" style="edgeStyle=orthogonalEdgeStyle;rounded=0;orthogonalLoop=1;jettySize=auto;html=1;entryX=0.5;entryY=0;entryDx=0;entryDy=0;" edge="1" parent="WIyWlLk6GJQsqaUBKTNV-1" target="1PxclfP2Zs6_VL7mTuX3-60">
          <mxGeometry relative="1" as="geometry">
            <mxPoint x="790" y="100" as="sourcePoint" />
            <mxPoint x="930" y="75" as="targetPoint" />
          </mxGeometry>
        </mxCell>
        <mxCell id="1PxclfP2Zs6_VL7mTuX3-125" value="" style="shape=flexArrow;endArrow=classic;startArrow=classic;html=1;rounded=0;exitX=0.5;exitY=0;exitDx=0;exitDy=0;entryX=0.5;entryY=1;entryDx=0;entryDy=0;" edge="1" parent="WIyWlLk6GJQsqaUBKTNV-1" source="1PxclfP2Zs6_VL7mTuX3-53" target="1PxclfP2Zs6_VL7mTuX3-130">
          <mxGeometry width="100" height="100" relative="1" as="geometry">
            <mxPoint x="720" y="340" as="sourcePoint" />
            <mxPoint x="920" y="-90" as="targetPoint" />
          </mxGeometry>
        </mxCell>
        <mxCell id="1PxclfP2Zs6_VL7mTuX3-126" value="LoginFragment" style="rounded=1;whiteSpace=wrap;html=1;fontSize=12;glass=0;strokeWidth=1;shadow=0;fillColor=#e1d5e7;strokeColor=#9673a6;" vertex="1" parent="WIyWlLk6GJQsqaUBKTNV-1">
          <mxGeometry x="1040" y="-40" width="160" height="40" as="geometry" />
        </mxCell>
        <mxCell id="1PxclfP2Zs6_VL7mTuX3-127" style="edgeStyle=orthogonalEdgeStyle;rounded=0;orthogonalLoop=1;jettySize=auto;html=1;entryX=0.5;entryY=1;entryDx=0;entryDy=0;" edge="1" parent="WIyWlLk6GJQsqaUBKTNV-1" target="1PxclfP2Zs6_VL7mTuX3-126">
          <mxGeometry relative="1" as="geometry">
            <mxPoint x="790" y="100" as="sourcePoint" />
            <mxPoint x="930" y="210" as="targetPoint" />
          </mxGeometry>
        </mxCell>
        <mxCell id="1PxclfP2Zs6_VL7mTuX3-128" value="" style="shape=flexArrow;endArrow=classic;startArrow=classic;html=1;rounded=0;exitX=0.5;exitY=0;exitDx=0;exitDy=0;entryX=0.5;entryY=1;entryDx=0;entryDy=0;" edge="1" parent="WIyWlLk6GJQsqaUBKTNV-1" source="1PxclfP2Zs6_VL7mTuX3-126" target="1PxclfP2Zs6_VL7mTuX3-129">
          <mxGeometry width="100" height="100" relative="1" as="geometry">
            <mxPoint x="930" y="35" as="sourcePoint" />
            <mxPoint x="1120" y="-80" as="targetPoint" />
          </mxGeometry>
        </mxCell>
        <mxCell id="1PxclfP2Zs6_VL7mTuX3-129" value="loginPresemntor" style="rounded=1;whiteSpace=wrap;html=1;fontSize=12;glass=0;strokeWidth=1;shadow=0;fillColor=#d5e8d4;strokeColor=#82b366;" vertex="1" parent="WIyWlLk6GJQsqaUBKTNV-1">
          <mxGeometry x="1035" y="-162" width="170" height="40" as="geometry" />
        </mxCell>
        <mxCell id="1PxclfP2Zs6_VL7mTuX3-130" value="SignUpPresentor" style="rounded=1;whiteSpace=wrap;html=1;fontSize=12;glass=0;strokeWidth=1;shadow=0;fillColor=#d5e8d4;strokeColor=#82b366;" vertex="1" parent="WIyWlLk6GJQsqaUBKTNV-1">
          <mxGeometry x="835" y="-162" width="170" height="40" as="geometry" />
        </mxCell>
      </root>
    </mxGraphModel>
  </diagram>
</mxfile>
